<?xml version="1.0" standalone="no"?>
<!DOCTYPE svg PUBLIC "-//W3C//DTD SVG 1.1//EN" "http://www.w3.org/Graphics/SVG/1.1/DTD/svg11.dtd" >
<svg xmlns="http://www.w3.org/2000/svg">
<metadata>
Created by FontForge 20120731 at Sat Dec 12 13:37:44 2015
 By Ads
</metadata>
<defs>
<font id="iconfont" horiz-adv-x="1024" >
  <font-face 
    font-family="iconfont"
    font-weight="500"
    font-stretch="normal"
    units-per-em="1024"
    panose-1="2 0 6 3 0 0 0 0 0 0"
    ascent="896"
    descent="-128"
    x-height="792"
    bbox="0 -221 1217 812"
    underline-thickness="50"
    underline-position="-100"
    unicode-range="U+0078-E620"
  />
<missing-glyph horiz-adv-x="374" 
d="M34 0v682h272v-682h-272zM68 34h204v614h-204v-614z" />
    <glyph glyph-name=".notdef" horiz-adv-x="374" 
d="M34 0v682h272v-682h-272zM68 34h204v614h-204v-614z" />
    <glyph glyph-name=".null" horiz-adv-x="0" 
 />
    <glyph glyph-name="nonmarkingreturn" horiz-adv-x="341" 
 />
    <glyph glyph-name="x" unicode="x" horiz-adv-x="1001" 
d="M281 543q-27 -1 -53 -1h-83q-18 0 -36.5 -6t-32.5 -18.5t-23 -32t-9 -45.5v-76h912v41q0 16 -0.5 30t-0.5 18q0 13 -5 29t-17 29.5t-31.5 22.5t-49.5 9h-133v-97h-438v97zM955 310v-52q0 -23 0.5 -52t0.5 -58t-10.5 -47.5t-26 -30t-33 -16t-31.5 -4.5q-14 -1 -29.5 -0.5
t-29.5 0.5h-32l-45 128h-439l-44 -128h-29h-34q-20 0 -45 1q-25 0 -41 9.5t-25.5 23t-13.5 29.5t-4 30v167h911zM163 247q-12 0 -21 -8.5t-9 -21.5t9 -21.5t21 -8.5q13 0 22 8.5t9 21.5t-9 21.5t-22 8.5zM316 123q-8 -26 -14 -48q-5 -19 -10.5 -37t-7.5 -25t-3 -15t1 -14.5
t9.5 -10.5t21.5 -4h37h67h81h80h64h36q23 0 34 12t2 38q-5 13 -9.5 30.5t-9.5 34.5q-5 19 -11 39h-368zM336 498v228q0 11 2.5 23t10 21.5t20.5 15.5t34 6h188q31 0 51.5 -14.5t20.5 -52.5v-227h-327z" />
    <glyph glyph-name="uniE600" unicode="&#xe600;" 
d="M152 -148v172q-60 4 -101.5 48t-41.5 104v400q0 63 44.5 107.5t107.5 44.5h702q63 0 107.5 -44.5t44.5 -107.5v-400q0 -63 -44.5 -107.5t-107.5 -44.5h-530zM161 680q-43 0 -73.5 -30.5t-30.5 -73.5v-400q0 -43 30.5 -73.5t73.5 -30.5h39v-108l114 108h549
q43 0 73.5 30.5t30.5 73.5v400q0 43 -30.5 73.5t-73.5 30.5h-702zM290 386zM228 386q0 26 18 44t44 18t44 -18t18 -44t-18 -44t-44 -18t-44 18t-18 44zM512 386zM450 386q0 26 18 44t44 18t44 -18t18 -44t-18 -44t-44 -18t-44 18t-18 44zM734 386zM672 386q0 26 18 44t44 18
t44 -18t18 -44t-18 -44t-44 -18t-44 18t-18 44z" />
    <glyph glyph-name="uniE601" unicode="&#xe601;" 
d="M177 359q-73 0 -124.5 -52t-51.5 -125t51.5 -125t124.5 -52t125 52t52 125t-52 125t-125 52zM177.5 83q-40.5 0 -69.5 29t-29 69.5t29 69.5t69.5 29t69 -29t28.5 -69.5t-28.5 -69.5t-69 -29zM745 379l78 19q0 39 -34.5 80.5t-90 69.5t-110.5 28q-120 0 -212 -87l-2 126
l-80 -80l4 -192l191 -3l80 80l-120 2q61 55 139 55q31 0 58.5 -10t45 -24.5t30 -29t18.5 -24.5zM843 340q-73 0 -124.5 -52t-51.5 -125.5t51.5 -125.5t124.5 -52t124.5 52t51.5 125.5t-51.5 125.5t-124.5 52z" />
    <glyph glyph-name="uniE602" unicode="&#xe602;" 
d="M479 429q25 -10 43 0q13 6 28 23q9 -2 16 -2q36 0 61.5 22.5t25.5 53.5t-25.5 53.5t-61.5 22.5t-61.5 -22.5t-25.5 -53.5q0 -30 24 -52q0 -15 -3 -24q-5 -15 -21 -21zM348 472q27 0 46 19t19 46t-19 46t-46 19t-46 -19t-19 -46t19 -46t46 -19zM957 169h-892l-65 -304
h1023zM402 -91l19 65h181l18 -65h-218zM957 682q0 12 -8 20.5t-20 8.5h-836q-12 0 -20 -8.5t-8 -20.5v-469h892v469zM914 256h-508q12 0 20.5 8t8.5 20v138q0 12 -8.5 20t-20.5 8h-36q0 -9 -6.5 -15t-15.5 -6t-15 6t-6 15h-38q-11 0 -19.5 -8t-8.5 -20v-138q0 -12 8.5 -20
t19.5 -8h-180v390h805v-390z" />
    <glyph glyph-name="uniE603" unicode="&#xe603;" horiz-adv-x="1026" 
d="M997 60h-968q-12 0 -20.5 -8.5t-8.5 -20.5v-71h1026v71q0 12 -8.5 20.5t-20.5 8.5zM182 158h236q12 0 20.5 -8.5t8.5 -19.5v-9q0 -12 -8.5 -20t-20.5 -8h558v532q0 12 -8.5 20.5t-19.5 8.5h-870q-11 0 -19.5 -8.5t-8.5 -20.5v-532h132v65zM261 332l127 73q8 18 23 14
l147 -55l176 121q7 4 15.5 0.5t13.5 -12.5t4 -18t-8 -13l-186 -128q-7 -4 -16 0q-4 -1 -8 0l-133 50l-130 -75q-7 -4 -15.5 -0.5t-14 12.5t-4 18t8.5 13z" />
    <glyph glyph-name="uniE604" unicode="&#xe604;" 
d="M76 537q11 11 26.5 11t26.5 -11l383 -419l383 419q11 11 26.5 11t26.5 -11t11 -26.5t-11 -26.5l-408 -446q-11 -11 -28 -10q-17 -1 -28 10l-408 446q-11 11 -11 26.5t11 26.5z" />
    <glyph glyph-name="uniE605" unicode="&#xe605;" 
d="M790 109q-6 3 -16 7.5t-33.5 10.5t-39.5 4q-28 -4 -58.5 -18t-47.5 -25t-17 -12q-13 -19 -22 -22t-20.5 -3t-17.5 2l-7 1q-4 12 -89 93q-37 35 -70 73.5t-49 59.5l-15 21q-3 4 -7 10.5t-10 21.5t-5 23q1 13 9.5 24t15.5 16l8 4l6 6q4 4 14 15.5t17.5 23.5t13 30t5.5 35
q-2 29 -18.5 65t-32.5 57l-16 21q-1 3 -2.5 7t-7 14.5t-13.5 19t-23 16t-32 9.5q-28 3 -56 -8t-42 -23l-14 -13q-8 -6 -21 -17t-37.5 -40t-30.5 -53q-10 -45 -7.5 -86.5t10.5 -70.5l8 -30q47 -86 112 -176t189 -220q38 -39 69.5 -68t48.5 -41.5t29.5 -19.5t15.5 -7.5t5 -0.5
q4 -3 13 -7.5t35 -15.5t51.5 -19t59.5 -12.5t64 -0.5q28 4 58 16.5t52.5 28t41 30.5t28 24.5t9.5 10.5l5 8q3 4 9.5 18t10.5 26.5t4 29t-6 28.5q-9 16 -26 32.5t-35 28t-35 20.5t-28 13zM729 237h102q-2 116 -53 202t-136 131.5t-194 49.5v-102q127 -5 204.5 -77t76.5 -204z
M544 812q-49 0 -96 -10v-99q52 13 96 13q104 0 192 -51t139.5 -139.5t51.5 -192.5q0 -43 -14 -96h100q10 48 10 96q0 98 -38 186.5t-102 152.5t-153 102t-186 38z" />
    <glyph glyph-name="uniE606" unicode="&#xe606;" 
d="M748 812v-19l-453 -491l453 -491v-19l-472 510z" />
    <glyph glyph-name="uniE607" unicode="&#xe607;" 
d="M512 -110q-83 0 -159 33q-74 30 -130.5 87t-87.5 130q-33 77 -33 160q0 111 55 205.5t149.5 149.5t205.5 55q83 0 159 -33q74 -31 130.5 -88t87.5 -130q33 -76 33 -159q0 -111 -55 -205.5t-149.5 -149.5t-205.5 -55zM831 434q-26 63 -74 111t-110 74q-65 28 -135 28
q-94 0 -174 -46.5t-126.5 -126.5t-46.5 -174q0 -144 101.5 -245.5t245.5 -101.5q94 0 174 46.5t126.5 126.5t46.5 174q0 70 -28 134zM780 269h-300v307q0 13 9.5 22t22.5 9t22 -9t9 -22v-244h237q14 0 23 -9t9 -22t-9 -22.5t-23 -9.5z" />
    <glyph glyph-name="uniE608" unicode="&#xe608;" 
d="M722 228q54 45 84.5 109.5t30.5 137.5q0 89 -43.5 163.5t-118.5 118t-163 43.5t-163 -43.5t-118.5 -118t-43.5 -163.5q0 -73 31 -138t86 -111q-100 -42 -174.5 -120t-110.5 -179q-18 -46 10.5 -87.5t77.5 -41.5v50q-22 0 -36 20t-5 41q35 100 111 174.5t177 108.5
q73 -41 158 -41q86 0 161 42q100 -34 175 -108t110 -173q7 -23 -6 -42t-35 -19v-50q48 0 75.5 40t12.5 87q-36 102 -110 180t-173 120zM237 475.5q0 113.5 80.5 194t194.5 80.5t194.5 -80.5t80.5 -194t-80.5 -194t-194.5 -80.5t-194.5 80.5t-80.5 194z" />
    <glyph glyph-name="uniE609" unicode="&#xe609;" 
d="M320 237q-31 0 -53.5 -22t-22.5 -53.5t22.5 -54t53.5 -22.5t53 22.5t22 54t-22 53.5t-53 22zM853 675h-443l71 112l-246 -112l-9 54l-125 -73v-2q-49 -35 -49 -94v-631q0 -48 34 -82t81 -34h686q48 0 81.5 34t33.5 82v631q0 48 -33.5 81.5t-81.5 33.5zM892 -45
q0 -24 -17 -40.5t-41 -16.5h-267l-46 -46v1q-6 -7 -13 -7t-13 7v-1l-46 46h-268q-24 0 -40.5 16.5t-16.5 40.5v356l223 159l451 -224v81l94 -41v-331zM723 237q-31 0 -53.5 -22t-22.5 -53.5t22.5 -54t53.5 -22.5t53 22.5t22 54t-22 53.5t-53 22z" />
    <glyph glyph-name="uniE60A" unicode="&#xe60a;" 
d="M1024 279q0 -35 -25 -60t-60 -25h-854q-35 0 -60 25t-25 60v42q0 35 25 60t60 25h854q35 0 60 -25t25 -60v-42zM533 812q35 0 60 -25t25 -60v-854q0 -35 -25 -60t-60 -25h-42q-35 0 -60 25t-25 60v854q0 35 25 60t60 25h42zM533 812z" />
    <glyph glyph-name="uniE60B" unicode="&#xe60b;" 
d="M896 443h-768q-53 0 -90.5 -37.5t-37.5 -90.5t37.5 -90.5t90.5 -37.5h768q53 0 90.5 37.5t37.5 90.5t-37.5 90.5t-90.5 37.5z" />
    <glyph glyph-name="uniE60C" unicode="&#xe60c;" 
d="M917 -63h-810q-36 0 -61 25t-25 61v469q0 35 25 60t61 25h21q0 18 12.5 30.5t30.5 12.5h42q18 0 30.5 -12.5t12.5 -30.5h43q24 3 42 22l43 42q17 22 43 22h170q13 0 23.5 -5.5t15.5 -10.5l4 -6l43 -42q8 -9 18.5 -14t17.5 -6l6 -2h192q36 0 61 -25t25 -60v-469
q0 -36 -25 -61t-61 -25zM960 492q0 18 -12.5 30.5t-30.5 12.5h-196q-39 4 -68 34l-46 45l-2 3q-3 3 -8 3h-170q-5 0 -9 -5l-2 -2l-45 -44q-29 -30 -68 -34h-88h-1h-1h-42h-1h-63q-18 0 -30.5 -12.5t-12.5 -30.5v-469q0 -18 12.5 -30.5t30.5 -12.5h810q18 0 30.5 12.5
t12.5 30.5v469zM512 23q-97 0 -166 68.5t-69 166t69 166t166 68.5t166 -68.5t69 -166t-69 -166t-166 -68.5zM512 449q-80 0 -136 -56t-56 -135.5t56 -136t136 -56.5t136 56.5t56 136t-56 135.5t-136 56zM512 151q-44 0 -75.5 31t-31.5 75.5t31.5 75.5t75.5 31t75.5 -31
t31.5 -75.5t-31.5 -75.5t-75.5 -31zM512.5 321q-26.5 0 -45.5 -18.5t-19 -45t19 -45.5t45.5 -19t45 19t18.5 45.5t-18.5 45t-45 18.5zM213 407h-85q-9 0 -15 6t-6 15v43q0 9 6 15t15 6h85q9 0 15.5 -6t6.5 -15v-43q0 -9 -6.5 -15t-15.5 -6z" />
    <glyph glyph-name="uniE60D" unicode="&#xe60d;" 
d="M512 798q-104 0 -198 -40.5t-162.5 -109t-109 -162.5t-40.5 -197.5t40.5 -197.5t109 -162.5t162.5 -109t197.5 -40.5t198 40.5t162.5 109t108.5 162.5t40.5 197.5t-40.5 197.5t-108.5 162.5t-162.5 109t-197.5 40.5zM512 -151q-89 0 -170.5 35t-140.5 94t-93.5 140.5
t-34.5 170.5t34.5 170t93.5 139.5t140.5 93.5t170.5 35t170 -35t140 -93.5t94 -139.5t35 -170t-35 -170.5t-94 -140.5t-140 -94t-170 -35zM381 310q4 -8 17.5 -31.5t19.5 -36.5l31 -58q54 112 93 170q27 41 57 75t53 53.5t41.5 32.5t28.5 17l10 5q-1 -9 -2.5 -23t-4 -44
t-1.5 -44q0 -16 4.5 -35.5t7.5 -31.5l4 -11q-9 -6 -25.5 -16.5t-60 -46t-79.5 -74.5q-23 -24 -52.5 -65t-48.5 -69l-18 -28q-58 70 -103 106q-23 17 -50.5 35t-43.5 27l-17 9q50 33 75.5 49.5t63.5 34.5z" />
    <glyph glyph-name="uniE60E" unicode="&#xe60e;" 
d="M712 463h15q-20 110 -122 184t-238 74q-99 0 -183 -40.5t-133 -111t-49 -153.5q0 -73 38.5 -136.5t104.5 -105.5l3 -2l-35 -111l132 67q4 -1 6 -1q56 -16 116 -16q11 0 24 1q-11 36 -11 73q0 75 44.5 139.5t121 101.5t166.5 37zM493.5 571q21.5 0 36.5 -14.5t15 -35
t-15 -35t-36.5 -14.5t-36.5 14.5t-15 35t15 35t36.5 14.5zM240 472q-21 0 -36 14.5t-15 35t15 35t36 14.5t36 -14.5t15 -35t-15 -35t-36 -14.5zM407 183q0 -107 90 -182.5t218 -75.5q50 0 97 13l5 2l112 -57l-30 93q2 1 3 2q56 36 88.5 89.5t32.5 115.5q0 107 -90.5 182
t-218 75t-217.5 -75t-90 -182zM779 271.5q0 17.5 12.5 29.5t30.5 12t30.5 -12t12.5 -29.5t-12.5 -29.5t-30.5 -12t-30.5 12t-12.5 29.5zM564 271.5q0 17.5 13 29.5t30.5 12t30.5 -12t13 -29.5t-13 -29.5t-30.5 -12t-30.5 12t-13 29.5z" />
    <glyph glyph-name="uniE60F" unicode="&#xe60f;" horiz-adv-x="1197" 
d="M120 451h119v120h120v121h-120v120h-119v-120h-120v-121h120v-120zM1137 571h-239q-2 5 -5.5 13t-15.5 29t-25 36.5t-33.5 29t-40.5 13.5h-299q-17 0 -29.5 -6.5t-18 -15.5t-8.5 -17.5t-4 -14.5v-7v-120h-120v-121h-239v-542q0 -31 14 -45.5t46 -14.5h1017
q31 0 45.5 14.5t14.5 45.5v663q0 31 -14.5 45.5t-45.5 14.5zM628.5 -92q-111.5 0 -190.5 79.5t-79 192t79 192t190.5 79.5t190.5 -79.5t79 -192t-79 -192t-190.5 -79.5zM419 180q0 87 61.5 148.5t148 61.5t148 -61.5t61.5 -149t-61.5 -149t-148 -61.5t-148 61.5t-61.5 149.5
z" />
    <glyph glyph-name="uniE610" unicode="&#xe610;" 
d="M512 -193q-100 0 -191.5 39t-157.5 105t-105 157.5t-39 191.5t39 191.5t105 157.5t157.5 105t191.5 39t191.5 -39t157.5 -105t105 -157.5t39 -191.5t-39 -191.5t-105 -157.5t-157.5 -105t-191.5 -39zM512 755q-93 0 -177 -36t-145 -97t-97 -145t-36 -177t36 -177t97 -145
t145 -97t177 -36t177 36t145 97t97 145t36 177t-36 177t-97 145t-145 97t-177 36zM398 528l303 -228l-303 -228v456z" />
    <glyph glyph-name="uniE611" unicode="&#xe611;" 
d="M828.5 616.5q-64.5 64.5 -148 98t-168.5 33.5t-168.5 -33.5t-148 -98t-98 -148t-33.5 -168.5t33.5 -168.5t98 -148t148 -98t168.5 -33.5t168.5 33.5t148 98t98 148t33.5 168.5t-33.5 168.5t-98 148zM765 110l-63 -63l-190 190l-190 -190l-63 63l190 190l-190 190l63 63
l190 -190l190 190l63 -63l-190 -190z" />
    <glyph glyph-name="uniE612" unicode="&#xe612;" 
d="M959.5 407q-12.5 36 -49.5 45l-218 54l-121 193q-20 33 -58.5 33t-58.5 -33l-121 -193l-219 -54q-37 -9 -49 -45t12 -65l144 -178l-13 -223q-3 -38 28 -60q18 -13 41 -13q12 0 24 4l211 81l212 -81q11 -4 24 -4q29 0 49.5 20t20.5 49q0 5 -1 11l-14 216l145 178
q24 29 11.5 65zM285 96l293 253q-11 5 -34 13t-103 25.5t-171 26.5q10 1 28 3.5t73 5.5t110 2.5t131.5 -9t144.5 -25.5l-307 -229q4 -3 18.5 -8t97 -19t212.5 -27q-90 -31 -226 -37q-138 -6 -267 25z" />
    <glyph glyph-name="uniE613" unicode="&#xe613;" 
d="M339 244.5q-57 -12.5 -90.5 -57.5t-24 -97t56.5 -79.5t104 -15t90.5 57.5t24 97t-56.5 79.5t-104 15zM331.5 57.5q-17.5 -9.5 -35 -5t-25 21t-0.5 34.5t24.5 27.5t35.5 5t25 -20.5t0 -34.5t-24.5 -28zM387 129q-8 -5 -15.5 -2.5t-11 10.5t-0.5 17t11 13.5t16 2.5
t11.5 -10t0 -17t-11.5 -14zM710 750q-14 0 -24.5 -10.5t-10.5 -26t10.5 -26t24.5 -10.5q96 0 164 -70.5t68 -170.5q0 -15 10 -26t24.5 -11t25 11t10.5 26q0 130 -88.5 222t-213.5 92zM716 604q-14 3 -26.5 -5t-15.5 -23t5 -27.5t23 -15.5q38 -8 65.5 -37t35.5 -69
q3 -15 15.5 -23.5t26.5 -5.5t22 16t5 28q-12 61 -54.5 105.5t-101.5 56.5zM748 296q-9 3 -12.5 5t-6.5 7.5t3 14.5q24 66 0 103q-25 36 -84 35.5t-135 -33.5q-26 -12 -24 6q0 2 1 5q25 84 -11 122q-40 43 -134 4t-187 -137q-70 -74 -108 -149.5t-38 -142.5q0 -82 60.5 -149
t154 -102t196.5 -35q95 0 180.5 29t141.5 74.5t88.5 98.5t32.5 103q0 54 -34.5 89.5t-83.5 51.5zM423.5 -73q-121.5 -13 -213 37.5t-99.5 134t72.5 151.5t202 80.5t213 -37.5t99.5 -133.5t-72.5 -151.5t-202 -81z" />
    <glyph glyph-name="uniE614" unicode="&#xe614;" 
d="M116 218q-25 -59 -28.5 -108.5t16.5 -59.5q14 -7 34.5 7.5t40.5 45.5q16 -66 76 -116q-31 -12 -48.5 -29t-17.5 -38q0 -33 46 -57t112 -24q58 0 102.5 19.5t53.5 48.5h9h10q9 -29 53 -48.5t103 -19.5q65 0 111 24t46 57q0 21 -17.5 38t-48.5 29q60 50 76 116
q21 -31 41 -45.5t34 -7.5q20 10 16.5 59.5t-28.5 108.5q-20 46 -44.5 78t-45.5 40q1 6 1 12q0 36 -18 64v4q0 17 -7 31q-5 125 -81.5 207t-200.5 82t-200.5 -82t-81.5 -207q-7 -14 -7 -31v-4q-18 -28 -18 -64q0 -6 1 -12q-21 -8 -45.5 -40t-44.5 -78z" />
    <glyph glyph-name="uniE615" unicode="&#xe615;" horiz-adv-x="1124" 
d="M1066 -212h-1009q-24 0 -40.5 16.5t-16.5 40.5q0 23 16.5 40t40.5 17h1009q24 0 40.5 -17t16.5 -40q0 -24 -16.5 -40.5t-40.5 -16.5zM1066 243h-1009q-24 0 -40.5 16.5t-16.5 40.5t16.5 40.5t40.5 16.5h1009q24 0 40.5 -16.5t16.5 -40.5t-16.5 -40.5t-40.5 -16.5z
M1066 698h-1009q-24 0 -40.5 17t-16.5 40q0 24 16.5 40.5t40.5 16.5h1009q24 0 40.5 -16.5t16.5 -40.5q0 -23 -16.5 -40t-40.5 -17z" />
    <glyph glyph-name="uniE616" unicode="&#xe616;" horiz-adv-x="1218" 
d="M1184 419h-134q-14 0 -23.5 9t-9.5 22t9.5 22t23.5 9h134q14 0 23.5 -9t9.5 -22t-9.5 -22t-23.5 -9zM1121 696l-116 -64q-8 -4 -16 -4q-19 0 -29 16q-7 11 -3.5 23.5t15.5 18.5l117 64q11 6 24.5 2.5t20 -14.5t3 -23.5t-15.5 -18.5zM817 101v-72q0 -51 -26 -96t-71 -72
q-14 -33 -44.5 -53t-68.5 -20t-69 20t-44 53q-45 28 -71 72.5t-26 95.5v72q-82 53 -129.5 139.5t-47.5 184.5q0 105 52 194t141 141t194 52t194 -52t140.5 -141t51.5 -194q0 -98 -47 -184.5t-129 -139.5zM465 -23h179q14 0 25 -11.5t11 -24.5q0 -24 -26 -24h-130l29 -27
q5 -18 20 -29t34 -11t34 11t20 29l16 19q26 14 47 44t28 60h-287q1 -3 0 -18t0 -18zM752 48v37h-287v-37h287zM608.5 729q-87.5 0 -161.5 -41t-117.5 -111t-43.5 -152t44 -144t116.5 -93.5t162 -31.5t162 31.5t116.5 93.5t44 144t-43 152t-117.5 111t-162 41zM228 626
q-9 0 -16 5l-117 63q-11 7 -15 19t3 23.5t20 14.5t25 -3l116 -64q12 -6 15.5 -18.5t-3.5 -23.5q-9 -16 -28 -16zM200 450q0 -13 -9.5 -22t-23.5 -9h-134q-14 0 -23.5 9t-9.5 22t9.5 22t23.5 9h134q14 0 23.5 -9t9.5 -22zM91 205l117 64q11 6 24.5 2.5t20 -14.5t3 -23.5
t-15.5 -18.5l-116 -64q-8 -4 -16 -4q-19 0 -29 16q-7 11 -3 23.5t15 18.5zM1009 267l116 -63q12 -7 15.5 -19.5t-3.5 -23.5q-9 -15 -28 -15q-9 0 -16 4l-117 63q-12 7 -15.5 19t3.5 23.5t20 14.5t25 -3z" />
    <glyph glyph-name="uniE617" unicode="&#xe617;" 
d="M849 168q70 103 70 228q0 113 -56.5 208.5t-154 151.5t-212.5 56t-212.5 -56t-154.5 -151.5t-57 -208.5q0 -141 88 -253l-109 -184q91 -18 183 -36l123 -135l116 193h23q27 0 54 3l117 -196q61 67 123 135l183 36zM350 -109q-44 41 -85 81l-119 33l55 93q89 -84 208 -109
zM759 -28q-41 -40 -85 -81l-63 105q117 33 199 122l68 -113q-60 -17 -119 -33zM494.5 757q99.5 0 183.5 -48t133 -131t49 -180.5t-49 -180.5t-133 -131t-183.5 -48t-184 48t-133.5 131t-49 180.5t49 180.5t133.5 131t184 48z" />
    <glyph glyph-name="uniE618" unicode="&#xe618;" 
d="M875 -212h-726q-41 0 -70 29t-29 70v826q0 41 29 70t70 29h726q41 0 70 -29t29 -70v-826q0 -41 -29 -70t-70 -29zM908 680q0 27 -19 46.5t-47 19.5h-660q-28 0 -47 -19.5t-19 -46.5v-760q0 -27 19 -46.5t47 -19.5h660q28 0 47 19.5t19 46.5v760zM215 19h594v-66h-594v66z
M215 151h594v-66h-594v66zM215 283h594v-66h-594v66zM743 383h-165q-27 0 -46.5 19t-19.5 47v165q0 27 19.5 46.5t46.5 19.5h165q28 0 47 -19.5t19 -46.5v-165q0 -28 -19 -47t-47 -19zM743 581q0 13 -9.5 23t-23.5 10h-99q-14 0 -23.5 -10t-9.5 -23v-99q0 -14 9.5 -23.5
t23.5 -9.5h99q14 0 23.5 9.5t9.5 23.5v99zM215 482h198v-66h-198v66zM215 614h198v-66h-198v66z" />
    <glyph glyph-name="uniE619" unicode="&#xe619;" 
d="M512 812q-104 0 -199 -40.5t-163.5 -109t-109 -163.5t-40.5 -199t40.5 -199t109 -163.5t163.5 -109t199 -40.5t199 40.5t163.5 109t109 163.5t40.5 199t-40.5 199t-109 163.5t-163.5 109t-199 40.5zM512 -163q-94 0 -180 36.5t-148 98.5t-98.5 148t-36.5 180t36.5 180
t98.5 148t148 98.5t180 36.5t180 -36.5t148 -98.5t98.5 -148t36.5 -180t-36.5 -180t-98.5 -148t-148 -98.5t-180 -36.5zM688 292l-53 32l-2 2l-83 51l36 152q1 4 1 8q1 8 -4 15t-13 9q-17 4 -26 -12l-171 -167q-12 -12 -5 -27q2 -7 7 -12l23 -20l76 -67l-46 -193
q-1 -7 1 -14q0 -9 6.5 -16t16 -7t16.5 6l173 168q1 2 3 4l48 47q7 7 7 17q3 16 -11 24zM642 267l-154 -151l27 112l4 17l2 10q5 15 -6 25l-13 12l-82 73l103 100l-22 -95q-4 -19 13 -26l79 -48v1z" />
    <glyph glyph-name="uniE61A" unicode="&#xe61a;" horiz-adv-x="1066" 
d="M428 107q11 -10 25.5 -10t24.5 10l351 338q11 10 11 24t-10.5 24t-25 10t-24.5 -10l-327 -314l-141 135q-10 10 -24.5 10t-25 -10t-10.5 -23.5t10 -23.5zM533 812v0v0q-16 0 -26.5 -10.5t-10.5 -25t10.5 -24.5t26.5 -10h2q92 -1 176 -35q83 -33 146.5 -94.5t98.5 -140.5
q36 -82 36 -172t-36 -172q-35 -79 -99 -140q-63 -62 -146 -95q-85 -35 -178.5 -35t-178.5 35q-83 33 -146.5 94.5t-98.5 140.5t-36 166v2q0 15 -10.5 25.5t-25.5 10.5t-25.5 -10t-11.5 -24v-1v-1v-1q1 -103 43.5 -197t114 -162t169.5 -108t206 -40t206.5 40.5t170 109
t113.5 163.5t42 199t-42 199t-113.5 163.5t-170 109t-206.5 40.5z" />
    <glyph glyph-name="uniE61B" unicode="&#xe61b;" horiz-adv-x="1218" 
d="M1184 419h-134q-14 0 -23.5 9t-9.5 22t9.5 22t23.5 9h134q14 0 23.5 -9t9.5 -22t-9.5 -22t-23.5 -9zM1121 696l-116 -64q-8 -4 -16 -4q-19 0 -29 16q-7 11 -3.5 23.5t15.5 18.5l117 64q11 6 24.5 2.5t20 -14.5t3 -23.5t-15.5 -18.5zM817 101v-72q0 -51 -26 -96t-71 -72
q-14 -33 -44.5 -53t-68.5 -20t-69 20t-44 53q-45 28 -71 72.5t-26 95.5v72q-82 53 -129.5 139.5t-47.5 184.5q0 105 52 194t141 141t194 52t194 -52t140.5 -141t51.5 -194q0 -98 -47 -184.5t-129 -139.5zM473 -21h1h1h179q14 0 23.5 -9t9.5 -22t-9.5 -22t-23.5 -9h-130
q8 -5 13 -8l12 -6l4 -13q5 -18 20 -29t34 -11t34 11t20 29l3 12l13 7q57 30 71 92h-282q3 -12 7 -22zM463 85v-22h288v22h-288zM752 674h-4q-3 0 -9 -3t-10.5 -8t-8.5 -16t-4 -26q0 -8 9 -17t18 -14l9 -4q37 -30 48.5 -47t22.5 -61q19 -36 36 -36q8 0 17 9t14 18l5 9
q2 62 -39.5 122.5t-103.5 73.5zM228 626q-9 0 -16 5l-117 63q-11 7 -15 19t3 23.5t20 14.5t25 -3l116 -64q12 -6 15.5 -18.5t-3.5 -23.5q-9 -16 -28 -16zM200 450q0 -13 -9.5 -22t-23.5 -9h-134q-14 0 -23.5 9t-9.5 22t9.5 22t23.5 9h134q14 0 23.5 -9t9.5 -22zM91 205
l117 64q11 6 24.5 2.5t20 -14.5t3 -23.5t-15.5 -18.5l-116 -64q-8 -4 -16 -4q-19 0 -29 16q-7 11 -3 23.5t15 18.5zM1009 267l116 -63q12 -7 15.5 -19.5t-3.5 -23.5q-9 -15 -28 -15q-9 0 -16 4l-117 63q-12 7 -15.5 19t3.5 23.5t20 14.5t25 -3z" />
    <glyph glyph-name="uniE61C" unicode="&#xe61c;" 
d="M973 -41q-91 -18 -183 -36l-123 -135l-117 196q-27 -3 -54 -3h-23l-116 -193q-61 67 -123 135q-181 36 -183 36l109 184q-88 112 -88 253q0 113 57 208.5t154.5 151.5t212.5 56t212.5 -56t154 -151.5t56.5 -208.5q0 -125 -70 -228zM860 397.5q0 97.5 -49 180.5t-133 131
t-183.5 48t-184 -48t-133.5 -131t-49 -180.5t49 -180.5t133.5 -131t184 -48t183.5 48t133 131t49 180.5zM746 423q-8 0 -16 8t-13 17l-5 8q-10 41 -21 57t-45 43q-4 2 -9.5 5t-15 12t-9.5 17q0 21 8.5 33.5t16.5 14.5l9 1q58 -12 97 -69t36 -114q-16 -33 -33 -33z" />
    <glyph glyph-name="uniE61D" unicode="&#xe61d;" 
d="M875 -212h-726q-41 0 -70 29t-29 70v826q0 41 29 70t70 29h726q41 0 70 -29t29 -70v-826q0 -41 -29 -70t-70 -29zM413 614h-198v-66h198v66zM413 482h-198v-66h198v66zM809 614q0 27 -19 46.5t-47 19.5h-165q-27 0 -46.5 -19.5t-19.5 -46.5v-165q0 -28 19.5 -47t46.5 -19
h165q28 0 47 19t19 47v165zM809 283h-594v-66h594v66zM809 151h-594v-66h594v66zM809 19h-594v-66h594v66zM710 449h-99q-14 0 -23.5 9.5t-9.5 23.5v99q0 13 9.5 23t23.5 10h99q14 0 23.5 -10t9.5 -23v-99q0 -14 -9.5 -23.5t-23.5 -9.5z" />
    <glyph glyph-name="uniE61E" unicode="&#xe61e;" 
d="M512 -212q-104 0 -199 40.5t-163.5 109t-109 163.5t-40.5 199t40.5 199t109 163.5t163.5 109t199 40.5t199 -40.5t163.5 -109t109 -163.5t40.5 -199t-40.5 -199t-109 -163.5t-163.5 -109t-199 -40.5zM307 37q-35 26 -46 41t-22 54q-17 31 -34 31q-8 0 -16.5 -7.5
t-13.5 -15.5l-4 -8q-3 -55 37 -108.5t99 -65.5q2 0 4 0.5t8 3t10.5 7t8 14t3.5 22.5q0 8 -8.5 16t-16.5 12zM705 281l-60 35l-2 2l-94 55l41 165q1 4 1 8q1 9 -4.5 16.5t-14.5 9.5q-20 5 -29 -12l-194 -181q-13 -13 -5 -29q2 -8 8 -13l26 -22l85 -73l-51 -209q-2 -8 1 -15
q0 -10 7.5 -17.5t18 -7.5t18.5 7l194 182l4 4l54 51q8 7 8 19q3 16 -12 25zM751 590q-1 -1 -3.5 -1t-8.5 -3t-10.5 -8t-8 -15t-3.5 -24q0 -8 8.5 -16.5t16.5 -13.5l9 -4q35 -28 46 -44.5t22 -58.5q18 -34 34 -34q8 0 16.5 8.5t13.5 17.5l4 8q3 59 -36.5 117t-99.5 71z
M509 212l5 18l2 11q7 16 -7 28l-14 12l-92 79l116 108l-25 -103q-2 -8 2 -16t12 -12l90 -51l55 -32l-174 -163z" />
    <glyph glyph-name="uniE61F" unicode="&#xe61f;" 
d="M178 159q-11 -11 -11 -26t11 -26t26 -11q16 0 26 12l284 284l283 -284q11 -12 27 -12q15 0 26 11t11 26t-11 26l-309 309q-11 12 -27 12t-27 -12l-25 -25z" />
    <glyph glyph-name="uniE620" unicode="&#xe620;" 
d="M835 576l-60 63l-263 -275v0l-263 275l-60 -63l262 -276l-262 -276l60 -63l263 275v0l263 -275l60 63l-262 276z" />
  </font>
</defs>
</svg>
