<?xml version="1.0" standalone="no"?>
<!DOCTYPE svg PUBLIC "-//W3C//DTD SVG 1.1//EN" "http://www.w3.org/Graphics/SVG/1.1/DTD/svg11.dtd" >
<svg xmlns="http://www.w3.org/2000/svg">
<metadata>
Created by FontForge 20120731 at Thu Jul 28 15:09:53 2016
 By admin
</metadata>
<defs>
<font id="iconfont" horiz-adv-x="1024" >
  <font-face 
    font-family="iconfont"
    font-weight="500"
    font-stretch="normal"
    units-per-em="1024"
    panose-1="2 0 6 3 0 0 0 0 0 0"
    ascent="896"
    descent="-128"
    x-height="792"
    bbox="0 -213 1024 896"
    underline-thickness="50"
    underline-position="-100"
    unicode-range="U+0078-E625"
  />
<missing-glyph horiz-adv-x="374" 
d="M34 0v682h272v-682h-272zM68 34h204v614h-204v-614z" />
    <glyph glyph-name=".notdef" horiz-adv-x="374" 
d="M34 0v682h272v-682h-272zM68 34h204v614h-204v-614z" />
    <glyph glyph-name=".null" horiz-adv-x="0" 
 />
    <glyph glyph-name="nonmarkingreturn" horiz-adv-x="341" 
 />
    <glyph glyph-name="x" unicode="x" horiz-adv-x="1001" 
d="M281 543q-27 -1 -53 -1h-83q-18 0 -36.5 -6t-32.5 -18.5t-23 -32t-9 -45.5v-76h912v41q0 16 -0.5 30t-0.5 18q0 13 -5 29t-17 29.5t-31.5 22.5t-49.5 9h-133v-97h-438v97zM955 310v-52q0 -23 0.5 -52t0.5 -58t-10.5 -47.5t-26 -30t-33 -16t-31.5 -4.5q-14 -1 -29.5 -0.5
t-29.5 0.5h-32l-45 128h-439l-44 -128h-29h-34q-20 0 -45 1q-25 0 -41 9.5t-25.5 23t-13.5 29.5t-4 30v167h911zM163 247q-12 0 -21 -8.5t-9 -21.5t9 -21.5t21 -8.5q13 0 22 8.5t9 21.5t-9 21.5t-22 8.5zM316 123q-8 -26 -14 -48q-5 -19 -10.5 -37t-7.5 -25t-3 -15t1 -14.5
t9.5 -10.5t21.5 -4h37h67h81h80h64h36q23 0 34 12t2 38q-5 13 -9.5 30.5t-9.5 34.5q-5 19 -11 39h-368zM336 498v228q0 11 2.5 23t10 21.5t20.5 15.5t34 6h188q31 0 51.5 -14.5t20.5 -52.5v-227h-327z" />
    <glyph glyph-name="uniE600" unicode="&#xe600;" 
d="M653.5 297q54.5 0 93 38.5t38.5 93t-38.5 93t-93 38.5t-93 -38.5t-38.5 -93t38.5 -93t93 -38.5zM653.5 506q33.5 0 57 -23.5t23.5 -57t-23.5 -57t-57 -23.5t-57 23.5t-23.5 57t23.5 57t57 23.5zM532 796q-364 -361 -500 -499q-11 -12 -15 -23.5t-3 -20.5t7.5 -20
t11.5 -16.5t14.5 -14.5t11.5 -11q45 -45 182.5 -182t185.5 -186q20 -21 45 -16t60 42q137 138 474 474v473h-474zM953 349q-335 -334 -447 -447q-40 -40 -85 8q-39 40 -157.5 157t-152.5 151q-25 23 -24.5 40.5t24.5 38.5q45 46 157 158t202 201l89 88h394v-395z" />
    <glyph glyph-name="uniE601" unicode="&#xe601;" 
d="M958 134l-93 124q54 49 62 106v2v1v0q0 7 -4.5 11.5t-11.5 4.5t-11.5 -4.5t-4.5 -11.5v0q-8 -53 -63 -97t-144 -69.5t-192.5 -25.5t-192.5 25.5t-144 69.5t-63 97q0 6 -4.5 10t-11 4t-11 -4t-5.5 -10v-1v-1q0 -2 1 -5q13 -73 97 -130l-90 -97q-3 -5 -1.5 -11.5t7.5 -10
t12.5 -1.5t9.5 7l90 96q48 -27 108 -44l-45 -168q-2 -7 1.5 -12.5t10 -7.5t12 1.5t7.5 9.5l45 169q72 -17 151 -18v-176q0 -7 4.5 -11.5t11 -4.5t11.5 4.5t5 11.5v176q86 2 165 22l54 -170q2 -7 8.5 -10.5t14 -1.5t11.5 8t2 12l-54 172q75 25 128 63l89 -120q8 -13 22 -5
q6 3 7.5 9t-1.5 12z" />
    <glyph glyph-name="uniE602" unicode="&#xe602;" 
d="M512 678q73 0 142 -24.5t116.5 -58t91 -78.5t65 -75t39.5 -59q-18 -29 -39.5 -59t-64.5 -75t-90.5 -78t-117 -57t-142.5 -24q-83 0 -156 24t-120.5 57t-87.5 77.5t-58.5 74.5t-32.5 58q17 29 39 59t65.5 75.5t91.5 79t117 58.5t142 25zM512 729q-69 0 -134.5 -19
t-115 -49t-93.5 -67.5t-74 -73.5t-52.5 -67.5t-32.5 -49t-10 -19.5q3 -7 8.5 -19.5t26.5 -48.5t46.5 -68.5t69 -72.5t93 -68.5t120 -48t148.5 -19.5q70 0 137 19.5t115.5 48t93.5 68t73 72t52 68.5t31 48.5t10 19.5q-4 7 -10.5 19.5t-31 48.5t-52 68.5t-72.5 72.5t-94 69
t-115.5 48.5t-136.5 19.5zM512 500q50 0 83 -33t33 -83t-33 -83t-83 -33t-83 33t-33 83t33 83t83 33zM512 551q-72 0 -119.5 -48t-47.5 -119t47.5 -119t119.5 -48t119.5 48t47.5 119t-47.5 119t-119.5 48z" />
    <glyph glyph-name="uniE603" unicode="&#xe603;" 
d="M988 -83q-1 29 -6 59q-10 58 -36 112q-44 94 -125 159q-64 51 -142 77q-3 1 -10 3l2 1q35 17 64 43q43 37 69 87q37 71 33 150q-1 25 -6 48q-18 81 -76 142q-24 26 -55 46q-66 42 -144 47q-20 1 -43 0q-24 -2 -47 -8q-79 -19 -137 -74q-39 -36 -62 -83q-35 -69 -31 -146
q1 -22 5 -42q16 -82 73 -144q37 -41 88 -66q1 -1 2 -1q-18 -6 -32 -11q-16 -6 -30 -13q-86 -41 -148 -113q-34 -38 -58 -83q-29 -55 -42 -117q-6 -28 -8 -54q-1 -16 -1 -21q0 -15 1 -19q1 -10 9 -15.5t17 -4.5q10 0 16.5 7t6.5 16q1 21 1 25q1 18 4 36q5 37 18 71
q28 80 86 141q39 41 88 69q41 25 88 39q33 10 66 14q25 3 44 3h1h2h8h2q8 0 16 -1q25 -1 51 -6q53 -9 102 -33q79 -38 136 -106q49 -60 72 -133q12 -38 16 -78q1 -16 2 -40q0 -10 7.5 -17.5t17.5 -6.5q10 0 17.5 7t7.5 17v17zM581 351q-19 -4 -43 -4h-2h-3h-6q-6 -1 -28 3
q-39 5 -76 24q-14 7 -30 17q-33 23 -57 55q-26 34 -39 75q-9 30 -11 63q-1 21 2 43q7 46 28 85q23 40 57 70q31 26 69 41q39 16 82 18q17 1 33 0q18 -2 35 -6q38 -8 72 -28q31 -18 54 -43q15 -16 27 -33q21 -30 31 -66q9 -29 11 -61q0 -14 -1 -31q-2 -19 -6 -38
q-9 -33 -26 -63q-22 -38 -55 -66q-25 -21 -55 -35t-63 -20z" />
    <glyph glyph-name="uniE604" unicode="&#xe604;" 
d="M266 808h586v37h-585q-40 0 -67.5 -27.5t-27.5 -66.5v-812h680v755h-585q-24 0 -41 17q-9 9 -13 21h639v38h-639q4 12 14 21q16 17 39 17zM266 656h548v-679h-604v698q25 -19 56 -19zM248 404h378v-38h-378v38zM248 532h151v-38h-151v38z" />
    <glyph glyph-name="uniE605" unicode="&#xe605;" 
d="M359 -11h328v-57h-328v57zM228 853h588v-57h-588v57zM952 635h-168v98v21l-521 2v-21v-2t-0.5 -6.5t-0.5 -10.5v-14v-18q0 -10 -0.5 -22.5t-0.5 -26.5h-170q-17 -1 -23.5 -13t-4.5 -24l2 -12q53 -151 87 -247q11 -30 22 -38.5t36 -4.5l-61 278h111v-163q0 -53 20 -102
t46.5 -81.5t62.5 -61.5t59 -42t45 -23l1 -84h59v84q22 10 44.5 23t58.5 41.5t62 60.5t46 80t20 100v168h111l-61 -278q25 -4 36 4.5t21 38.5l88 247q0 2 0.5 5.5t0.5 11.5t-2 14.5t-8.5 11.5t-17.5 6zM523 127q-5 2 -13 5t-31.5 15.5t-45 27t-48 39.5t-45.5 52t-32 65.5
t-13 80.5q0 190 3 301l450 -2v-103v-136v-66q0 -56 -23.5 -105t-56 -79.5t-66.5 -53t-55.5 -32t-23.5 -9.5z" />
    <glyph glyph-name="uniE606" unicode="&#xe606;" 
d="M296 -101q0 -46 -33.5 -78.5t-80.5 -32.5t-80.5 32.5t-33.5 78.5v802q0 46 33.5 78.5t80.5 32.5t80.5 -32.5t33.5 -78.5v-802zM888 -101q0 -46 -33 -78.5t-80 -32.5t-80.5 32.5t-33.5 78.5v802q0 46 33.5 78.5t80.5 32.5t80 -32.5t33 -78.5v-802z" />
    <glyph glyph-name="uniE607" unicode="&#xe607;" 
d="M592 540q0 33 -23.5 56.5t-56.5 23.5t-56.5 -23.5t-23.5 -56.5t23.5 -56.5t56.5 -23.5t56.5 23.5t23.5 56.5zM592 60q0 33 -23.5 56.5t-56.5 23.5t-56.5 -23.5t-23.5 -56.5t23.5 -56.5t56.5 -23.5t56.5 23.5t23.5 56.5zM592 300q0 33 -23.5 56.5t-56.5 23.5t-56.5 -23.5
t-23.5 -56.5t23.5 -56.5t56.5 -23.5t56.5 23.5t23.5 56.5z" />
    <glyph glyph-name="uniE608" unicode="&#xe608;" 
d="M607 311q-8 0 -13 -6q-5 -5 -4.5 -12.5t6.5 -12.5q42 -37 66.5 -104t24.5 -145q0 -7 5 -12.5t12.5 -5.5t12.5 5.5t5 12.5q0 85 -27.5 159t-75.5 116q-5 5 -12 5zM422 311q-7 0 -12 -5q-48 -42 -75.5 -116t-27.5 -159q0 -7 5 -12.5t12.5 -5.5t12.5 5.5t5 12.5
q0 78 24.5 145t66.5 104q6 5 6.5 12.5t-4.5 12.5q-6 6 -13 6zM514.5 730q87.5 0 149.5 -61.5t62 -148.5t-62 -148.5t-149.5 -61.5t-149.5 61.5t-62 148.5t62 148.5t149.5 61.5zM514 764q-102 0 -174 -71.5t-72 -172.5t72 -173t174.5 -72t174.5 72t72 173t-72 172.5
t-175 71.5zM233 573h-3q-72 -10 -121 -64.5t-49 -126.5q0 -50 25 -93.5t69 -70.5q2 -1 7 -4q-17 -20 -29 -46q-30 -61 -30 -137q0 -8 5 -13t12.5 -5t12.5 5t5 13q0 67 26 122q16 33 39 53l22 19l-27 10q-12 5 -25 13q-36 22 -56.5 57.5t-20.5 76.5q0 58 40 103t100 53
q7 1 11.5 7t3.5 13q-2 15 -17 15zM796 573q-15 0 -17 -15q-1 -7 3.5 -13t11.5 -7q60 -8 100 -53t40 -103q0 -41 -20.5 -76.5t-56.5 -57.5q-12 -7 -25 -12l-27 -11l22 -19q22 -19 39 -53q26 -54 26 -122q0 -7 5 -12.5t12.5 -5.5t12.5 5.5t5 12.5q0 75 -30 137q-12 26 -29 46
q5 3 7 4q44 27 69 70.5t25 93.5q0 72 -49 126.5t-121 64.5h-3zM514.5 384q-41.5 0 -70.5 25t-29 60q0 7 5 12t12 5t12.5 -5t5.5 -12q0 -21 19 -35.5t45.5 -14.5t45.5 14.5t19 35.5q0 7 5.5 12t12.5 5t12 -5t5 -12q0 -35 -29 -60t-70.5 -25z" />
    <glyph glyph-name="uniE60A" unicode="&#xe60a;" 
d="M489 93h-309v699h477v-420q30 12 64 16v404q0 28 -14 46t-39 18h-488q-26 0 -44.5 -18.5t-18.5 -45.5v-824q0 -27 18.5 -45.5t44.5 -18.5h447q-54 29 -90.5 78.5t-47.5 110.5zM428 -70q-26 0 -47 20.5t-21 47t21 47.5t47 21t47 -21t21 -47.5t-21 -47t-47 -20.5zM753 315
q-79 0 -135 -55.5t-56 -135t56 -135t135 -55.5t134.5 55.5t55.5 134.5t-55.5 135t-134.5 56zM713 3l-96 96l45 45l51 -51l126 125l45 -45z" />
    <glyph glyph-name="uniE60B" unicode="&#xe60b;" 
d="M785 134q32 22 50.5 57.5t18.5 74.5q0 67 -47 114t-113.5 47t-113.5 -47t-47 -114q0 -39 18.5 -74.5t50.5 -57.5q-99 -30 -161 -113.5t-62 -187.5q0 -11 8 -19t19 -8t19 8t8 19q0 108 76.5 184.5t184 76.5t184 -76.5t76.5 -184.5q0 -11 8 -19t19.5 -8t19 8t7.5 19
q0 104 -62 187.5t-161 113.5zM693.5 373q44.5 0 75.5 -31.5t31 -75.5t-31 -75.5t-75.5 -31.5t-75.5 31.5t-31 75.5t31 75.5t75.5 31.5zM785 134q32 22 50.5 57.5t18.5 74.5q0 67 -47 114t-113.5 47t-113.5 -47t-47 -114q0 -39 18.5 -74.5t50.5 -57.5q-99 -30 -161 -113.5
t-62 -187.5q0 -11 8 -19t19 -8t19 8t8 19q0 108 76.5 184.5t184 76.5t184 -76.5t76.5 -184.5q0 -11 8 -19t19.5 -8t19 8t7.5 19q0 104 -62 187.5t-161 113.5zM693.5 373q44.5 0 75.5 -31.5t31 -75.5t-31 -75.5t-75.5 -31.5t-75.5 31.5t-31 75.5t31 75.5t75.5 31.5zM461 685
q-92 0 -157 -65t-65 -157q0 -62 32.5 -115t87.5 -82q-150 -35 -246.5 -156.5t-96.5 -276.5q0 -11 7.5 -19t19 -8t19.5 8t8 19q0 106 52.5 196t142.5 142.5t196 52.5q26 0 52 -3l6 -1q-6 23 -6 46q0 19 4 39l-7 -2q-24 -8 -49 -8q-69 0 -118.5 49.5t-49.5 118.5t49.5 118.5
t118.5 49.5t118.5 -49.5t49.5 -118.5q0 -11 -2 -24l-1 -5q27 11 56 13q1 9 1 16q0 92 -65 157t-157 65zM696 449v-1v-1q44 0 83 -21q-11 18 -27 28v12q0 29 -6 58q-5 28 -16 55q-11 26 -27 49t-36 43t-43 35q-23 16 -49 27t-54 17q-29 6 -58.5 6t-58.5 -6q-28 -6 -55 -17
q-25 -11 -49 -27q-23 -15 -43 -35t-35 -43q-16 -23 -27 -49q-11 -27 -17 -55t-6 -58v-4q-33 -15 -48 -48q-17 -37 -3 -75q11 -29 36 -46.5t55 -17.5h2q36 1 72 25l5 4l-4 5q-13 14 -21 25q-12 19 -21 40t-14 44q-5 24 -5 48t5 47t14 45q9 21 21.5 40t28.5 35t35 29
q19 12 40 21q22 9 45 14t47 5t48 -5q23 -5 44 -14t40 -21.5t35 -28.5t29 -35t22 -40q9 -22 14 -45q4 -23 4 -47v-14q-1 -1 -2 -3zM172 358q-9 24 7 43q6 -25 16 -48q4 -11 11 -23q-25 4 -34 28z" />
    <glyph glyph-name="uniE60C" unicode="&#xe60c;" 
d="M928 555h-54v-452q0 -44 -31 -75.5t-75 -31.5h-478q-44 0 -75.5 31.5t-31.5 75.5v452h-53v-505q0 -44 31 -75t75 -31h585q44 0 75.5 31t31.5 75v505zM795 661v53q0 44 -31.5 75t-75.5 31h-322q-44 0 -73.5 -31t-29.5 -75v-53h-184v-53h184h532h184v53h-184zM316 661v53
q0 22 14 37.5t36 15.5h322q22 0 38 -15.5t16 -37.5v-53h-426zM377 533h53v-463h-53v463zM628 533h53v-463h-53v463z" />
    <glyph glyph-name="uniE60D" unicode="&#xe60d;" 
d="M703 675q69 0 132 -63q63 -61 63 -150q0 -88 -62 -148q-283 -248 -322 -281q-18 15 -320 281q-64 62 -64 147q0 88 64 152q62 62 131 62q70 0 152 -66l37 -31l38 31q81 66 151 66zM703 734q-91 0 -189 -79q-98 79 -189 79q-94 0 -173 -79q-81 -82 -81 -193
q0 -54 21.5 -103.5t61.5 -88.5q342 -301 346 -303q8 -4 14 -4t8 2q6 2 50.5 40t303.5 265q81 78 81 192q0 115 -81 193q-79 79 -173 79z" />
    <glyph glyph-name="uniE60E" unicode="&#xe60e;" 
d="M816 351v-338q0 -21 -15 -36t-37 -15h-155v260q0 11 -7.5 18.5t-18.5 7.5h-155q-11 0 -18.5 -7.5t-7.5 -18.5v-260h-156q-21 0 -36.5 15t-15.5 37v337h-52v-389q0 -22 12 -37t33 -15h221v1h46v298h103v-298h45v-1h222q21 0 33 15t12 37v389h-53zM505 832q-11 0 -18 -7
l-445 -461q-8 -7 -7.5 -18t7.5 -18q8 -8 18 -8q11 0 19 8l426 441l427 -441q7 -8 18 -8t18 8q8 7 8 18t-7 18l-445 461q-7 7 -19 7z" />
    <glyph glyph-name="uniE60F" unicode="&#xe60f;" 
d="M518 703l103 -205l12 -23l25 -4l229 -33l-165 -157l-19 -19l5 -25l20 -119l10 -53l5 -34l4 -18l-206 106l-23 12l-23 -12l-206 -106l39 224l5 26l-19 18l-165 157l229 33l25 4l12 23zM518 778q-17 0 -25 -16l-122 -242l-273 -39q-17 -3 -22.5 -19t7.5 -28l197 -189
l-47 -266q-2 -17 12 -27q7 -6 16 -6q7 0 13 4l244 125l244 -125q6 -4 13 -4q9 0 17 6q14 10 11 27q-5 25 -11 61q-11 62 -15 86l-21 119l197 189q13 12 7 28q-5 17 -22 19l-273 39l-122 242q-7 16 -25 16z" />
    <glyph glyph-name="uniE610" unicode="&#xe610;" 
d="M778 866h-497q-27 0 -46 -19t-19 -45v-841q0 -27 19 -45.5t46 -18.5h497q26 0 40 17t14 45v843q0 28 -14 46t-40 18zM534 -77q-27 0 -48.5 21t-21.5 48t21.5 48t48.5 21t48 -21t21 -48t-21 -48t-48 -21zM767 89h-486v713h486v-713z" />
    <glyph glyph-name="uniE611" unicode="&#xe611;" 
d="M847 -71h-619l1 31q4 131 58 238.5t142 160.5q-58 36 -93 99t-35 134q0 108 71 184.5t171 76.5t170.5 -76.5t70.5 -184.5q0 -64 -34 -126.5t-84 -101.5q79 -49 126.5 -155t53.5 -248zM293 -9h489q-10 134 -61 225t-131 115l-36 11l-39 -11q-88 -25 -150 -120t-72 -220z
M542.5 792q-74.5 0 -127 -58.5t-52.5 -141.5q0 -70 43.5 -129t107.5 -73l50 -11l24 10q47 18 91 78t44 125q0 83 -53 141.5t-127.5 58.5z" />
    <glyph glyph-name="uniE612" unicode="&#xe612;" 
d="M502 816q89 0 169.5 -34.5t139 -93t93 -139t34.5 -169.5t-34.5 -169.5t-93 -139t-139 -93t-169.5 -34.5t-169.5 34.5t-139 93t-93 139t-34.5 169.5t34.5 169.5t93 139t139 93t169.5 34.5zM502 856q-197 0 -336.5 -139.5t-139.5 -336.5t139.5 -336.5t336.5 -139.5
t336.5 139.5t139.5 336.5t-139.5 336.5t-336.5 139.5zM502 614l70 -139l9 -18l21 -3l154 -22l-111 -107l-16 -15l4 -20l15 -86l7 -40l4 -21l1 -5l-140 72l-18 9l-18 -9l-140 -72l26 152l4 20l-15 15l-112 107l155 22l20 3l10 18zM502 678q-13 0 -18 -12l-88 -173l-195 -28
q-12 -2 -16 -13.5t5 -20.5l141 -135l-33 -190q-2 -13 8 -20q5 -4 12 -4q5 0 9 3l175 90l174 -90q5 -3 10 -3q6 0 12 4q10 7 8 20q-4 18 -8 43q-2 9 -5.5 30t-5.5 32l-15 85l141 135q9 9 5.5 20.5t-16.5 13.5l-195 28l-87 174q-6 11 -18 11z" />
    <glyph glyph-name="uniE613" unicode="&#xe613;" 
d="M618 624l278 -244l-284 -247v121v60l-60 -7q-12 -2 -32.5 -5t-72.5 -15.5t-102.5 -28.5t-116 -45t-119.5 -65q16 47 38 87q120 214 403 214h14l53 -1v54v122h1zM565 740v-239q-5 1 -15 1q-81 0 -151 -17.5t-119 -44t-89.5 -66t-66 -76.5t-45 -82t-28.5 -76.5t-15 -66
t-7 -44t-1 -18.5q51 56 124.5 102t142 71t129.5 42t98 23l37 5v-237l417 363zM28 12z" />
    <glyph glyph-name="uniE614" unicode="&#xe614;" 
d="M360 343q0 17 -12 29t-29 12q-51 0 -87 36t-36 87t36 87t87 36q17 0 29 12t12 29t-12 29t-29 12q-85 0 -145 -60t-60 -145q0 -94 72 -156q-70 -36 -112 -104.5t-42 -149.5q0 -17 12 -29t29 -12t29 12t12 29q0 85 60 145t145 60q17 0 29 12t12 29zM360 343zM606 794
q106 0 181.5 -75t75.5 -181.5t-76 -181.5q-17 -18 -38 -32q82 -30 144 -92q56 -56 87.5 -130t31.5 -156q0 -15 -10.5 -25t-25 -10t-24.5 10t-10 25q0 68 -26 129t-72.5 107.5t-107.5 72.5t-130 26v0q-69 0 -130 -26t-107.5 -72.5t-72.5 -107.5t-26 -129q0 -15 -10 -25
t-24.5 -10t-25 10t-10.5 25q0 82 31.5 156t87.5 130q62 62 144 92q-21 14 -39 32q-75 75 -75 181.5t75.5 181.5t181.5 75v0zM738 669q-55 55 -132 55t-132 -54.5t-55 -132t55 -132.5q54 -54 132 -54v0q78 0 132 54q55 55 55 132.5t-55 131.5zM738 669z" />
    <glyph glyph-name="uniE615" unicode="&#xe615;" 
d="M515 730q-103 0 -176.5 -73.5t-73.5 -176.5q0 -73 38.5 -133.5t101.5 -91.5q-89 -27 -155 -94q-54 -53 -82 -121.5t-28 -144.5q0 -8 6 -14.5t14.5 -6.5t14.5 6.5t6 14.5q0 139 98 236q94 94 227 98h9q104 0 177.5 73.5t73.5 177t-73.5 177t-177.5 73.5v0zM519 271h-4h-9
q-83 4 -141 64.5t-58 144.5q0 86 61 147t147.5 61t147.5 -61t61 -147t-60 -147t-145 -62v0zM640.5 -117q-6.5 0 -11.5 4q-12 8 -8 22l43 131l-112 82q-11 8 -7 21.5t19 13.5h138l43 132q4 13 18.5 13t18.5 -13l43 -132h138q15 0 19 -13.5t-7 -21.5l-112 -82l43 -131
q4 -14 -7.5 -22.5t-23.5 0.5l-111 81l-112 -81q-5 -4 -11.5 -4z" />
    <glyph glyph-name="uniE616" unicode="&#xe616;" 
d="M939 99h-169v169q0 8 -6 14.5t-14.5 6.5t-15 -6.5t-6.5 -14.5v-169h-168q-9 0 -15 -6t-6 -14.5t6 -15t15 -6.5h168v-168q0 -9 6.5 -15t15 -6t14.5 6t6 15v168h169q8 0 14.5 6.5t6.5 15t-6.5 14.5t-14.5 6zM939 99zM886 58v-3h2q-1 1 -2 3zM907 212v179q0 72 -28 139
q-27 64 -76.5 113.5t-113.5 76.5q-67 29 -139 29h-79q-72 0 -139 -29q-64 -27 -113.5 -76.5t-76.5 -113.5q-29 -67 -29 -139v-181q-50 -60 -50 -140q0 -88 59 -151q59 -62 142 -62q34 0 65 11q17 6 27 20.5t10 31.5v299q0 18 -10 32.5t-27 20.5q-31 11 -65 11
q-64 0 -115 -38v146q0 87 43.5 161t117.5 117.5t161 43.5h79q87 0 161 -43.5t117.5 -117.5t43.5 -161v-146zM264 247q27 0 53 -9q13 -4 13 -19v-299q0 -14 -13 -18q-26 -10 -53 -10q-68 0 -116.5 52t-48.5 125.5t48.5 125.5t116.5 52zM757 -108z" />
    <glyph glyph-name="uniE617" unicode="&#xe617;" 
d="M939 183h-379q-9 0 -15 -6t-6 -14.5t6 -15t15 -6.5h379q8 0 14.5 6.5t6.5 15t-6.5 14.5t-14.5 6zM886 142v-3h2q-1 1 -2 3zM907 296v179q0 72 -28 139q-27 64 -76.5 113.5t-113.5 76.5q-67 29 -139 29h-79q-72 0 -139 -29q-64 -27 -113.5 -76.5t-76.5 -113.5
q-29 -67 -29 -139v-181q-50 -60 -50 -140q0 -88 59 -151q59 -62 142 -62q34 0 65 11q17 6 27 20.5t10 31.5v299q0 18 -10 32.5t-27 20.5q-31 11 -65 11q-64 0 -115 -38v146q0 87 43.5 161t117.5 117.5t161 43.5h79q87 0 161 -43.5t117.5 -117.5t43.5 -161v-146zM264 331
q27 0 53 -9q13 -4 13 -19v-299q0 -14 -13 -18q-26 -10 -53 -10q-68 0 -116.5 52t-48.5 125.5t48.5 125.5t116.5 52zM757 -24z" />
    <glyph glyph-name="uniE618" unicode="&#xe618;" 
d="M482 298h71q-4 -28 -13 -51l218 -57l-33 -62q-123 42 -218 69q-53 -55 -214 -69q-13 31 -33 65q120 7 169 30t53 75zM482 640h71v-61h53q19 30 36 59l59 -25l-24 -34h86v-115h-63v61h-364v-61h-64v115h83q-10 16 -20 33l55 26q20 -30 38 -59h54v61zM314 222v142h405v-142
h-68v86h-268v-86h-69zM358 387v114h320v-114h-320zM421 430h194v29h-194v-29zM512 896q-104 0 -199 -40.5t-163.5 -109t-109 -163.5t-40.5 -199t40.5 -199t109 -163.5t163.5 -109t199 -40.5t199 40.5t163.5 109t109 163.5t40.5 199t-40.5 199t-109 163.5t-163.5 109
t-199 40.5zM512 -72q-93 0 -177.5 36t-145.5 97t-97 145.5t-36 177.5t36 177.5t97 145.5t145.5 97t177.5 36t177.5 -36t145.5 -97t97 -145.5t36 -177.5t-36 -177.5t-97 -145.5t-145.5 -97t-177.5 -36zM512 -72z" />
    <glyph glyph-name="uniE619" unicode="&#xe619;" 
d="M509.5 660q-103.5 0 -191 -51t-138.5 -139t-51 -191.5t51 -191t138.5 -138.5t191 -51t191.5 51t139 138.5t51 191t-51 191.5t-139 139t-191.5 51zM662 80l-152 80l-152 -80l29 169l-124 120l170 25l77 154l76 -154l170 -25l-123 -120zM504 688q161 0 281 -110l134 174
l-819 -3l130 -166q118 105 274 105zM94 876h831v-101h-831v101z" />
    <glyph glyph-name="uniE61A" unicode="&#xe61a;" 
d="M905 287q-1 81 -33 155q-32 73 -90 128q-57 55 -131 84q-73 28 -152 27q-78 -2 -149 -33t-124 -87q-54 -56 -81 -127q-28 -70 -26 -147q1 -76 32 -144q30 -69 84 -120q53 -52 122 -79q69 -26 142 -25q74 2 140 31t116 82q50 52 76 118q15 40 21 82h3q21 0 35.5 15
t14.5 36v4v0zM825 153q-28 -64 -79 -112q-50 -48 -114 -73t-133 -23q-68 1 -130 29q-61 27 -107 76q-47 48 -70 110q-24 61 -23 127q2 66 28 125q27 59 74 104q46 44 106 67q59 23 122 22q64 -2 121 -27q56 -26 99 -71t65 -102t20 -118v-4q0 -19 13 -33.5t32 -16.5
q-7 -42 -24 -80z" />
    <glyph glyph-name="uniE61B" unicode="&#xe61b;" 
d="M1013 -100l-198 198q84 118 84 263q0 91 -35.5 174.5t-95.5 143.5t-143.5 95.5t-174.5 35.5t-174.5 -35.5t-143.5 -95.5t-95.5 -143.5t-35.5 -174.5t35.5 -174.5t95.5 -143.5t143.5 -95.5t174.5 -35.5q145 0 263 84l198 -198q11 -11 26 -11t25 11l51 51q11 10 11 25
t-11 26zM129 361q0 87 43 161t117 117t161 43t161 -43t117 -117t43 -161t-43 -161t-117 -117t-161 -43t-161 43t-117 117t-43 161z" />
    <glyph glyph-name="uniE61C" unicode="&#xe61c;" 
d="M497 131q81 0 138.5 57.5t57.5 139.5v224q0 81 -57.5 138.5t-138.5 57.5t-138.5 -57.5t-57.5 -138.5v-224q0 -82 57.5 -139.5t138.5 -57.5zM357 552q0 58 41 99t99 41t99 -41t41 -99v-224q0 -58 -41 -99.5t-99 -41.5t-99 41.5t-41 99.5v224zM833 328h-56
q0 -116 -82 -198.5t-198 -82.5t-198 82.5t-82 198.5h-56q0 -132 89 -228.5t219 -106.5v-86h-168v-56h392v56h-168v86q130 10 219 106.5t89 228.5z" />
    <glyph glyph-name="uniE61D" unicode="&#xe61d;" 
d="M512 -128q-104 0 -199 40q-92 39 -163 110t-110 163q-40 95 -40 199t40 199q39 92 110 163t163 110q95 40 199 40t199 -40q92 -39 163 -110t110 -163q40 -95 40 -199q0 -62 -15 -122q-14 -58 -41 -112q-7 -12 -19.5 -16t-24 2t-15.5 18.5t2 24.5q49 96 49 205
q0 91 -35.5 174t-95.5 143t-143 95.5t-174 35.5t-174 -35.5t-143 -95.5t-95.5 -143t-35.5 -174t35.5 -174t95.5 -143t143 -95.5t174 -35.5q144 0 260 83q11 8 24 5.5t20.5 -13t5.5 -23.5t-13 -21q-133 -95 -297 -95zM527.5 223q-13.5 0 -22.5 9.5t-9 22.5v90q0 35 26 59
q15 13 53 32q42 21 60.5 40t18.5 54q0 49 -39.5 79.5t-104.5 30.5q-46 0 -83.5 -23.5t-51.5 -62.5q-8 -24 -4 -42q3 -13 -4 -24.5t-20 -14t-24.5 4.5t-14.5 20q-8 37 7 78q21 57 75 92.5t120 35.5q90 0 147 -47q61 -49 61 -127q0 -62 -41 -104q-23 -22 -73 -47
q-29 -15 -36.5 -21.5t-7.5 -13.5v-89q0 -13 -9.5 -22.5t-23 -9.5zM529 124zM489 124.5q0 16.5 11.5 28t28 11.5t28.5 -11.5t12 -28t-12 -28.5t-28.5 -12t-28 12t-11.5 28.5z" />
    <glyph glyph-name="uniE61E" unicode="&#xe61e;" 
d="M480 832q-130 0 -240.5 -64.5t-175 -175t-64.5 -240.5t64.5 -240.5t175 -175t240.5 -64.5t240.5 64.5t175 175t64.5 240.5t-64.5 240.5t-175 175t-240.5 64.5zM480 -64q-172 0 -294 122t-122 294t122 294t294 122t294 -122t122 -294t-122 -294t-294 -122zM697 589
q9 9 9 22t-9 22t-22 9t-22 -9l-174 -173l-171 171q-9 9 -21.5 9t-21.5 -9t-9 -21.5t9 -21.5l183 -183v-21h-160q-13 0 -22.5 -9.5t-9.5 -22.5t9.5 -22.5t22.5 -9.5h160v-128h-160q-13 0 -22.5 -9.5t-9.5 -22.5t9.5 -22.5t22.5 -9.5h160v-96q0 -13 9.5 -22.5t22.5 -9.5
t22.5 9.5t9.5 22.5v96h160q13 0 22.5 9.5t9.5 22.5t-9.5 22.5t-22.5 9.5h-160v128h160q13 0 22.5 9.5t9.5 22.5t-9.5 22.5t-22.5 9.5h-160v20z" />
    <glyph glyph-name="uniE61F" unicode="&#xe61f;" 
d="M512 -128q-139 0 -257 68.5t-186.5 186.5t-68.5 257t68.5 257t186.5 186.5t257 68.5t257 -68.5t186.5 -186.5t68.5 -257t-68.5 -257t-186.5 -186.5t-257 -68.5zM851 567l-33 33q-8 8 -17 0l-358 -302l-190 140q-8 8 -16 0l-33 -34q-9 -8 0 -16l226 -243q1 0 2 -1
q4 -3 8 -2q8 0 14 6l397 403q8 8 0 16z" />
    <glyph glyph-name="uniE620" unicode="&#xe620;" 
d="M950 449q-21 36 -58.5 56.5t-82.5 20.5q-50 0 -116 -1q21 125 21 181q0 63 -41 97q-34 29 -84 29q-48 0 -81.5 -39t-33.5 -95q0 -40 -2.5 -51.5t-16.5 -30.5q-43 -59 -78.5 -92t-49.5 -33h-180q-38 0 -65.5 -27t-27.5 -65v-371q0 -38 27.5 -65t65.5 -27h123
q13 0 22.5 9.5t9.5 23.5v457h25q71 0 182 152q21 30 26 51.5t5 68.5q0 29 15 50q15 19 34 19q60 0 60 -61q0 -68 -27 -209q-3 -15 7 -27q10 -11 25 -11h1h3q87 2 151 2q58 0 84 -45q21 -36 2 -69l-8 -14q-11 -17 -15.5 -26.5t-8 -27t-2.5 -38.5l3 -30v-1q5 -21 3.5 -40.5
t-13.5 -34.5q-32 -38 -40 -76v-1v-2q-28 -55 -95 -55h-289q-14 0 -23.5 -9.5t-9.5 -23t9.5 -23t23.5 -9.5h289q52 0 92 24t62 68q4 7 6 18q4 23 25 48q17 20 23.5 45t6 40t-3.5 40l-1 3q-2 15 -2 23q-1 17 1.5 26t14.5 28q6 10 9 16q18 31 17.5 66.5t-19.5 67.5zM120 399
q0 11 8 19t19 8h90v-425h-90q-11 0 -19 8t-8 19v371z" />
    <glyph glyph-name="uniE621" unicode="&#xe621;" 
d="M952 453q-2 5 -7 13l-2 3q-12 19 -14.5 28t-1.5 26q0 8 2 25l1 1q3 25 3.5 40t-6 40t-23.5 46q-21 24 -25 47q-2 11 -6 18q-43 86 -142 91v1h-301q-14 0 -23.5 -9.5t-9.5 -23t9.5 -23t23.5 -9.5h289q67 0 95 -55v-2l1 -1q7 -38 39 -76q12 -15 13.5 -34.5t-2.5 -40.5h-1
q-2 -21 -3 -31q-1 -21 2.5 -38.5t8.5 -27t15 -26.5l8 -14q19 -33 -2 -69q-26 -45 -84 -45q-64 0 -151 2h-2h-1h-1q-15 0 -25 -11q-10 -12 -7 -27q27 -140 27 -209q0 -61 -60 -61q-19 0 -34 19q-15 21 -15 50q0 47 -5 68.5t-26 51.5q-111 152 -182 152h-25v457
q0 14 -9.5 23.5t-22.5 9.5h-123q-38 0 -65.5 -27t-27.5 -65v-371q0 -38 27.5 -65t65.5 -27h180q14 0 49.5 -33t78.5 -92q14 -19 16.5 -30.5t2.5 -51.5q0 -56 33.5 -95t81.5 -39q50 0 84 29q41 34 41 97q0 56 -21 181q65 -1 116 -1q45 0 82.5 20.5t58.5 56.5q19 32 19.5 67.5
t-17.5 66.5zM120 740q0 11 8 19t19 8h90v-425h-90q-11 0 -19 8t-8 19v371z" />
    <glyph glyph-name="uniE622" unicode="&#xe622;" 
d="M821 675q23 0 39 -16t16 -39v-358q0 -22 -16 -38.5t-39 -16.5h-380l-15 -10l-101 -74v29v55h-110q-23 0 -39 16t-16 39v358q0 23 16 39t39 16h606zM821 730h-606q-46 0 -78 -32t-32 -78v-358q0 -45 32 -77.5t78 -32.5h55l1 -138l188 138h362q45 0 77.5 32.5t32.5 77.5
v358q0 46 -32.5 78t-77.5 32zM416 476h-111v-55h111v55zM581 476h-110v-55h110v55zM746 476h-110v-55h110v55z" />
    <glyph glyph-name="uniE623" unicode="&#xe623;" 
d="M584 851h-437q-43 0 -73 -30t-30 -73v-719q0 -43 30 -73t73 -30h719q43 0 73 30t30 73v488h-51v-437q0 -42 -30 -72.5t-73 -30.5h-617q-42 0 -72.5 30.5t-30.5 72.5v617q0 43 30.5 73t72.5 30h386v51zM296 227l623 623l36 -36l-623 -623z" />
    <glyph glyph-name="uniE624" unicode="&#xe624;" 
d="M512 700q79 0 151 -30q70 -30 123.5 -83.5t83.5 -123.5q30 -72 30 -151t-30 -151q-30 -70 -83.5 -123.5t-123.5 -83.5q-72 -30 -151 -30t-151 30q-70 30 -123.5 83.5t-83.5 123.5q-30 72 -30 151t30 151q30 70 83.5 123.5t123.5 83.5q72 30 151 30zM512 760
q-122 0 -225 -60t-163 -163t-60 -225t60 -225t163 -163t225 -60t225 60t163 163t60 225t-60 225t-163 163t-225 60zM727 342h-185v185q0 12 -9 21t-21 9t-21 -9t-9 -21v-185h-185q-12 0 -21 -9t-9 -21t9 -21t21 -9h185v-185q0 -12 9 -21t21 -9t21 9t9 21v185h185q12 0 21 9
t9 21t-9 21t-21 9z" />
    <glyph glyph-name="uniE625" unicode="&#xe625;" 
d="M202 -51h-1q-10 0 -17 7.5t-6 17.5q5 117 76.5 208.5t182.5 124.5q10 3 19 -2t12 -14.5t-2 -18.5t-15 -12q-96 -29 -158 -108t-66 -180q-1 -10 -8 -16.5t-17 -6.5zM757 158q-12 0 -19 8q-60 68 -146 94q-10 3 -14.5 12t-1.5 18.5t11.5 14.5t18.5 2q100 -30 169 -108
q7 -8 6 -18t-8 -17q-7 -6 -16 -6zM521.5 247q-75.5 0 -129.5 54t-54 130t54 129.5t129.5 53.5t129.5 -53.5t54 -129.5t-54 -130t-129.5 -54zM521.5 565q-55.5 0 -95 -39.5t-39.5 -95t39.5 -94.5t95 -39t95 39t39.5 94.5t-39.5 95t-95 39.5zM675.5 -50q-10.5 0 -17.5 7
l-100 100q-7 7 -7 17.5t7 17.5t17.5 7t17.5 -7l82 -83l171 171q7 7 17 7t17.5 -7t7.5 -17.5t-8 -17.5l-187 -188q-7 -7 -17.5 -7z" />
  </font>
</defs>
</svg>
